<svg xmlns="http://www.w3.org/2000/svg" width="256" height="256" fill="none" viewBox="0 0 256 256" id="kakao">
  <rect width="224" height="224" x="16" y="16" fill="url(#paint0_linear_531_13602)" rx="70"></rect>
  <path fill="#000" d="M127.975 66.0957C91.174 66.0957 61.333 89.7708 61.333 118.987C61.333 137.877 73.8002 154.424 92.576 163.818L85.8167 188.123C85.8167 188.123 85.6915 189.257 86.4175 189.685C87.1435 190.113 88.0197 189.786 88.0197 189.786C90.1226 189.483 112.303 173.792 116.183 171.072C120.014 171.626 123.994 171.903 128.025 171.903C164.825 171.903 194.666 148.228 194.666 119.012C194.666 89.796 164.775 66.0957 127.975 66.0957Z"></path>
  <path fill="#FFE812" d="M91.1236 137.422C88.9957 137.422 87.2683 135.76 87.2683 133.72V110.725H81.26C79.1822 110.725 77.5049 109.037 77.5049 106.947C77.5049 104.856 79.2072 103.169 81.26 103.169H100.962C103.04 103.169 104.717 104.856 104.717 106.947C104.717 109.037 103.015 110.725 100.962 110.725H94.9539V133.72C94.9539 135.735 93.2015 137.422 91.0986 137.422H91.1236ZM124.845 137.372C123.243 137.372 122.016 136.717 121.641 135.659L119.738 130.622H108.022L106.119 135.659C105.744 136.717 104.517 137.372 102.915 137.372C102.064 137.372 101.238 137.195 100.461 136.868C99.41 136.364 98.3836 135.029 99.5602 131.377L108.748 107.022C109.399 105.158 111.376 103.244 113.88 103.194C116.383 103.144 118.386 105.158 119.012 107.022L128.2 131.377C129.376 135.029 128.35 136.415 127.298 136.868C126.547 137.221 125.696 137.372 124.845 137.372ZM117.71 123.771L113.88 112.79L110.05 123.771H117.71ZM134.383 136.868C132.38 136.868 130.703 135.281 130.703 133.342V107.022C130.703 104.881 132.455 103.144 134.633 103.144C136.811 103.144 138.564 104.907 138.564 107.022V129.74H146.725C148.728 129.74 150.405 131.327 150.405 133.266C150.405 135.206 148.753 136.792 146.725 136.792L134.383 136.868ZM151.882 133.493V107.047C151.882 104.907 153.635 103.169 155.737 103.169C157.84 103.169 159.593 104.932 159.593 107.047V115.359L170.358 104.529C171.543 103.337 173.783 103.441 175.139 104.806C176.413 106.088 176.745 108.255 175.414 109.616L166.602 118.432L176.065 131.025C177.337 132.662 177.028 135.213 175.314 136.415C173.625 137.674 171.142 137.254 169.932 135.659L160.92 123.645L159.593 124.98V133.417C159.593 138.443 151.882 138.637 151.882 133.493Z"></path>
  <defs>
    <linearGradient id="paint0_linear_531_13602" x1="16" x2="208" y1="16" y2="240" gradientUnits="userSpaceOnUse">
      <stop stop-color="#fff"></stop>
      <stop offset="1" stop-color="#ACCCFF"></stop>
    </linearGradient>
  </defs>
</svg>
